<?xml version="1.0" standalone="no"?>
<!DOCTYPE svg PUBLIC "-//W3C//DTD SVG 20010904//EN"
 "http://www.w3.org/TR/2001/REC-SVG-20010904/DTD/svg10.dtd">
<svg version="1.0" xmlns="http://www.w3.org/2000/svg"
 width="512.000000pt" height="512.000000pt" viewBox="0 0 512.000000 512.000000"
 preserveAspectRatio="xMidYMid meet">

<g transform="translate(0.000000,512.000000) scale(0.100000,-0.100000)"
fill="#000000" stroke="none">
<path d="M2627 4615 c-55 -20 -86 -44 -665 -505 l-522 -414 0 -1136 0 -1136
532 -429 c343 -277 554 -440 593 -459 119 -58 279 -41 373 40 22 19 53 60 69
92 l28 57 0 1831 0 1831 -40 78 c-43 85 -98 134 -173 155 -51 14 -150 11 -195
-5z"/>
<path d="M564 3511 c-47 -12 -133 -62 -160 -94 -14 -17 -37 -53 -52 -81 l-27
-51 0 -725 0 -725 27 -51 c40 -76 70 -107 140 -145 l63 -34 283 -3 282 -3 0
960 0 961 -262 -1 c-145 -1 -277 -4 -294 -8z"/>
<path d="M3282 2700 c-33 -15 -47 -29 -62 -62 -40 -88 -12 -184 62 -218 41
-19 69 -20 558 -20 489 0 517 1 558 20 108 49 108 231 0 280 -41 19 -69 20
-558 20 -489 0 -517 -1 -558 -20z"/>
</g>
</svg>
