<?xml version="1.0" standalone="no"?>
<!DOCTYPE svg PUBLIC "-//W3C//DTD SVG 20010904//EN"
 "http://www.w3.org/TR/2001/REC-SVG-20010904/DTD/svg10.dtd">
<svg version="1.0" xmlns="http://www.w3.org/2000/svg"
 width="512.000000pt" height="512.000000pt" viewBox="0 0 512.000000 512.000000"
 preserveAspectRatio="xMidYMid meet">

<g transform="translate(0.000000,512.000000) scale(0.100000,-0.100000)"
fill="#000000" stroke="none">
<path d="M2700 4260 c-25 -4 -65 -16 -90 -26 -25 -10 -259 -179 -522 -375
-262 -197 -494 -369 -515 -382 -92 -58 -110 -60 -483 -66 l-345 -6 -67 -32
c-94 -44 -160 -109 -206 -202 l-37 -75 0 -536 0 -536 37 -75 c46 -93 112 -158
206 -202 l67 -32 345 -6 c373 -6 391 -8 483 -66 21 -13 254 -185 516 -382 530
-398 538 -403 676 -404 201 -3 361 117 419 312 14 49 16 192 16 1392 0 1282
-1 1340 -19 1398 -50 160 -173 270 -335 300 -66 12 -80 12 -146 1z"/>
<path d="M3554 3131 c-63 -38 -93 -112 -74 -183 10 -34 42 -72 180 -212 l169
-171 -169 -170 c-140 -142 -170 -177 -179 -212 -21 -76 11 -148 79 -183 44
-22 85 -25 127 -10 15 6 105 88 200 182 l172 172 163 -167 c166 -170 204 -197
270 -197 45 0 108 38 131 78 22 38 26 117 7 153 -7 13 -87 99 -179 192 l-166
167 173 173 c188 188 202 211 182 288 -26 96 -122 144 -217 108 -15 -6 -103
-85 -195 -177 l-168 -166 -167 166 c-93 92 -181 171 -196 177 -44 17 -109 13
-143 -8z"/>
</g>
</svg>
