<?xml version="1.0" standalone="no"?>
<!DOCTYPE svg PUBLIC "-//W3C//DTD SVG 20010904//EN"
 "http://www.w3.org/TR/2001/REC-SVG-20010904/DTD/svg10.dtd">
<svg version="1.0" xmlns="http://www.w3.org/2000/svg"
 width="512.000000pt" height="512.000000pt" viewBox="0 0 512.000000 512.000000"
 preserveAspectRatio="xMidYMid meet">

<g transform="translate(0.000000,512.000000) scale(0.100000,-0.100000)"
fill="#000000" stroke="none">
<path d="M2627 4615 c-55 -20 -86 -44 -665 -505 l-522 -414 0 -1136 0 -1136
532 -429 c343 -277 554 -440 593 -459 119 -58 279 -41 373 40 22 19 53 60 69
92 l28 57 0 1831 0 1831 -40 78 c-43 85 -98 134 -173 155 -51 14 -150 11 -195
-5z"/>
<path d="M564 3511 c-47 -12 -133 -62 -160 -94 -14 -17 -37 -53 -52 -81 l-27
-51 0 -725 0 -725 27 -51 c40 -76 70 -107 140 -145 l63 -34 283 -3 282 -3 0
960 0 961 -262 -1 c-145 -1 -277 -4 -294 -8z"/>
<path d="M3762 3180 c-71 -32 -82 -69 -82 -282 l0 -178 -177 0 c-155 0 -184
-3 -221 -20 -108 -49 -108 -231 0 -280 37 -17 66 -20 221 -20 l177 0 0 -177
c0 -155 3 -184 20 -221 49 -108 231 -108 280 0 17 37 20 66 20 221 l0 177 178
0 c154 0 183 3 220 20 108 49 108 231 0 280 -37 17 -66 20 -220 20 l-178 0 0
178 c0 154 -3 183 -20 220 -22 48 -79 82 -140 82 -19 0 -54 -9 -78 -20z"/>
</g>
</svg>
