<?xml version="1.0" standalone="no"?>
<!DOCTYPE svg PUBLIC "-//W3C//DTD SVG 20010904//EN"
 "http://www.w3.org/TR/2001/REC-SVG-20010904/DTD/svg10.dtd">
<svg version="1.0" xmlns="http://www.w3.org/2000/svg"
 width="512.000000pt" height="512.000000pt" viewBox="0 0 512.000000 512.000000"
 preserveAspectRatio="xMidYMid meet">

<g transform="translate(0.000000,512.000000) scale(0.100000,-0.100000)"
fill="#000000" stroke="none">
<path d="M2315 5109 c-800 -83 -1501 -518 -1927 -1196 -604 -961 -490 -2237
274 -3068 425 -462 951 -737 1583 -827 119 -17 512 -16 635 1 622 86 1148 360
1572 820 349 378 572 862 650 1406 17 118 17 512 0 630 -59 416 -191 769 -410
1099 -92 140 -185 254 -315 385 -399 404 -893 653 -1462 737 -123 18 -478 26
-600 13z m705 -1123 c173 -29 379 -93 451 -140 49 -33 66 -76 51 -130 -20 -76
-121 -290 -147 -313 -36 -31 -75 -29 -235 12 -193 49 -297 65 -424 65 -317 0
-529 -109 -659 -341 l-47 -84 319 -5 319 -5 26 -24 c25 -24 26 -27 26 -157 0
-126 -1 -134 -24 -161 l-24 -28 -361 -3 -361 -3 0 -79 0 -80 360 0 361 0 24
-25 c24 -23 25 -29 25 -160 0 -131 -1 -137 -25 -160 l-24 -25 -331 0 -331 0 6
-22 c16 -53 77 -167 120 -225 47 -62 136 -138 207 -174 89 -46 208 -71 353
-76 163 -6 229 2 447 57 174 44 212 48 247 23 24 -16 84 -136 136 -270 48
-126 27 -161 -140 -225 -548 -212 -1160 -123 -1540 223 -156 143 -294 377
-365 617 l-22 72 -164 0 c-162 0 -165 0 -189 25 -24 23 -25 29 -25 158 0 186
-6 180 182 187 l143 5 3 77 3 76 -140 4 c-131 3 -141 4 -165 27 -25 24 -26 28
-26 157 0 73 3 140 6 149 14 36 57 45 226 45 l163 0 28 82 c195 566 690 893
1322 873 72 -3 168 -11 215 -19z"/>
</g>
</svg>
